<mxfile host="65bd71144e">
    <diagram id="HIP3nbAZw_EuaXWnEj3U" name="Page-1">
        <mxGraphModel dx="819" dy="431" grid="1" gridSize="10" guides="1" tooltips="1" connect="1" arrows="1" fold="1" page="1" pageScale="1" pageWidth="850" pageHeight="1100" math="0" shadow="0">
            <root>
                <mxCell id="0"/>
                <mxCell id="1" parent="0"/>
                <mxCell id="5" style="edgeStyle=none;html=1;entryX=1;entryY=0.5;entryDx=0;entryDy=0;" parent="1" source="6" target="9" edge="1">
                    <mxGeometry relative="1" as="geometry">
                        <mxPoint x="790" y="170" as="targetPoint"/>
                        <Array as="points">
                            <mxPoint x="760" y="160"/>
                        </Array>
                    </mxGeometry>
                </mxCell>
                <mxCell id="6" value="Start" style="strokeWidth=2;html=1;shape=mxgraph.flowchart.terminator;whiteSpace=wrap;" parent="1" vertex="1">
                    <mxGeometry x="710" y="30" width="100" height="60" as="geometry"/>
                </mxCell>
                <mxCell id="7" value="Stop" style="strokeWidth=2;html=1;shape=mxgraph.flowchart.terminator;whiteSpace=wrap;" parent="1" vertex="1">
                    <mxGeometry x="375.5" y="650" width="100" height="60" as="geometry"/>
                </mxCell>
                <mxCell id="26" style="edgeStyle=none;html=1;entryX=0.5;entryY=0;entryDx=0;entryDy=0;entryPerimeter=0;" parent="1" source="9" target="14" edge="1">
                    <mxGeometry relative="1" as="geometry">
                        <Array as="points">
                            <mxPoint x="426" y="160"/>
                        </Array>
                    </mxGeometry>
                </mxCell>
                <mxCell id="9" value="Get radioButtonValue" style="rounded=1;whiteSpace=wrap;html=1;absoluteArcSize=1;arcSize=14;strokeWidth=2;" parent="1" vertex="1">
                    <mxGeometry x="550" y="120" width="110" height="80" as="geometry"/>
                </mxCell>
                <mxCell id="12" style="edgeStyle=none;html=1;entryX=0.6;entryY=0;entryDx=0;entryDy=0;entryPerimeter=0;exitX=0;exitY=0.75;exitDx=0;exitDy=0;" parent="1" source="16" target="21" edge="1">
                    <mxGeometry relative="1" as="geometry">
                        <mxPoint x="551.5" y="310" as="targetPoint"/>
                        <Array as="points">
                            <mxPoint x="580" y="350"/>
                        </Array>
                    </mxGeometry>
                </mxCell>
                <mxCell id="29" style="edgeStyle=none;html=1;exitX=0.238;exitY=0.78;exitDx=0;exitDy=0;exitPerimeter=0;" edge="1" parent="1" source="14">
                    <mxGeometry relative="1" as="geometry">
                        <mxPoint x="260" y="490" as="targetPoint"/>
                        <Array as="points">
                            <mxPoint x="260" y="350"/>
                        </Array>
                    </mxGeometry>
                </mxCell>
                <mxCell id="14" value="&lt;br&gt;&lt;br&gt;If alwaysOnButton&lt;br&gt;==&lt;br&gt;true" style="strokeWidth=2;html=1;shape=mxgraph.flowchart.decision;whiteSpace=wrap;" parent="1" vertex="1">
                    <mxGeometry x="368" y="250" width="115" height="120" as="geometry"/>
                </mxCell>
                <mxCell id="16" value="Yes" style="text;strokeColor=none;align=center;fillColor=none;html=1;verticalAlign=middle;whiteSpace=wrap;rounded=0;" parent="1" vertex="1">
                    <mxGeometry x="450" y="320" width="60" height="30" as="geometry"/>
                </mxCell>
                <mxCell id="33" style="edgeStyle=none;html=1;entryX=0.5;entryY=0;entryDx=0;entryDy=0;entryPerimeter=0;" edge="1" parent="1" source="21" target="7">
                    <mxGeometry relative="1" as="geometry">
                        <Array as="points">
                            <mxPoint x="570" y="650"/>
                        </Array>
                    </mxGeometry>
                </mxCell>
                <mxCell id="21" value="Show valuePositive" style="shape=parallelogram;html=1;strokeWidth=2;perimeter=parallelogramPerimeter;whiteSpace=wrap;rounded=1;arcSize=12;size=0.23;" parent="1" vertex="1">
                    <mxGeometry x="520" y="480" width="100" height="60" as="geometry"/>
                </mxCell>
                <mxCell id="30" value="No" style="text;strokeColor=none;align=center;fillColor=none;html=1;verticalAlign=middle;whiteSpace=wrap;rounded=0;" vertex="1" parent="1">
                    <mxGeometry x="330" y="320" width="60" height="30" as="geometry"/>
                </mxCell>
                <mxCell id="32" style="edgeStyle=none;html=1;entryX=0.5;entryY=0;entryDx=0;entryDy=0;entryPerimeter=0;" edge="1" parent="1" source="31" target="7">
                    <mxGeometry relative="1" as="geometry">
                        <Array as="points">
                            <mxPoint x="260" y="650"/>
                        </Array>
                    </mxGeometry>
                </mxCell>
                <mxCell id="31" value="Show valueNegative" style="shape=parallelogram;html=1;strokeWidth=2;perimeter=parallelogramPerimeter;whiteSpace=wrap;rounded=1;arcSize=12;size=0.23;" vertex="1" parent="1">
                    <mxGeometry x="210" y="490" width="100" height="60" as="geometry"/>
                </mxCell>
            </root>
        </mxGraphModel>
    </diagram>
</mxfile>